<svg xmlns="http://www.w3.org/2000/svg" viewBox="0 0 508.7 128.9"><linearGradient id="a" gradientUnits="userSpaceOnUse" x1="680.63" y1="-470.38" x2="2.52" y2="704.14" gradientTransform="matrix(1 0 0 -1 0 129.89)"><stop offset="0" stop-color="#2427ca"/><stop offset=".24" stop-color="#242bcc"/><stop offset=".45" stop-color="#2435d2"/><stop offset=".65" stop-color="#2447dc"/><stop offset=".84" stop-color="#2561ea"/><stop offset="1" stop-color="#257bf9"/></linearGradient><path d="M503.1 0H239.5a5.7 5.7 0 00-5.7 5.7v117.5c0 3.2 2.6 5.7 5.7 5.7H503c3.2 0 5.7-2.6 5.7-5.7V5.7c.1-3.1-2.5-5.7-5.6-5.7zM298.4 87.9c-3.6 5.7-10.3 10.8-20.5 10.8-14.7 0-25.6-11.5-25.6-26.9 0-15.7 11.1-26.8 25.5-26.8 10.7 0 17.3 5.3 20.6 11.3 1.3 2.4.2 5.4-2.3 6.5l-.2.1c-2.2.9-4.9.1-6-2-2-3.6-5.7-6.8-12-6.8-8.1.1-15.5 6-15.5 17.8 0 11.5 7.3 17.7 15.5 17.7 6.8 0 10.5-3.3 12.5-6.6 1.2-2 3.7-2.9 5.9-1.9a4.6 4.6 0 012.1 6.8zm27.8 4.6c0 2.6-2.1 4.7-4.7 4.7h-.5a4.7 4.7 0 01-4.7-4.7V25.9c0-2.6 2.1-4.7 4.7-4.7h.5c2.6 0 4.7 2.1 4.7 4.7v66.6zm30.7 0c0 2.6-2.1 4.7-4.7 4.7h-.4a4.7 4.7 0 01-4.7-4.7V51.4c0-2.6 2.1-4.7 4.7-4.7h.4c2.6 0 4.7 2.1 4.7 4.7v41.1zm-5-58a7.04 7.04 0 110-14.1c4 0 7.2 3.1 7.2 7.1 0 3.9-3.2 7-7.2 7zm67.7 53.4c-3.6 5.7-10.3 10.8-20.5 10.8-14.7 0-25.6-11.5-25.6-26.9 0-15.7 11.1-26.8 25.5-26.8 10.7 0 17.3 5.3 20.6 11.3 1.3 2.4.2 5.4-2.3 6.5l-.2.1c-2.2.9-4.9.1-6-2-2-3.6-5.7-6.8-12-6.8-8.2.1-15.5 6-15.5 17.8 0 11.5 7.3 17.7 15.5 17.7 6.8 0 10.5-3.3 12.5-6.6 1.2-2 3.7-2.9 5.9-1.9a4.6 4.6 0 012.1 6.8zm54.1 9.3h-.6c-1.5 0-2.9-.7-3.8-1.9l-11.9-16a4.66 4.66 0 00-7.1-.5l-1.8 1.8c-.9.9-1.4 2.1-1.4 3.3v8.6c0 2.6-2.1 4.7-4.7 4.7h-.4a4.7 4.7 0 01-4.7-4.7V25.9c0-2.6 2.1-4.7 4.7-4.7h.4c2.6 0 4.7 2.1 4.7 4.7v31.6c0 4.2 5.1 6.3 8.1 3.3l12.5-12.7c.9-.9 2.1-1.4 3.4-1.4h.3c4.2 0 6.3 5.1 3.3 8l-10.5 10.4a4.73 4.73 0 00-.5 6.2l13.8 18.4c2.3 3.1.1 7.5-3.8 7.5z" fill="url(#a)"/><linearGradient id="b" gradientUnits="userSpaceOnUse" x1="498.66" y1="-717.44" x2="-179.45" y2="457.08" gradientTransform="matrix(1 0 0 -1 0 -12.11)"><stop offset="0" stop-color="#2427ca"/><stop offset=".24" stop-color="#242bcc"/><stop offset=".45" stop-color="#2435d2"/><stop offset=".65" stop-color="#2447dc"/><stop offset=".84" stop-color="#2561ea"/><stop offset="1" stop-color="#257bf9"/></linearGradient><path d="M128.2 92.2V71.9c0-11.1 5.6-15.5 13.9-15.5h1c1.8 0 3.3-1.5 3.3-3.3l-.1-4c0-1.8-1.4-3.2-3.2-3.2-3.7 0-8 .9-11.5 4.4-1.3 1.3-3.6.4-3.6-1.5 0-1.2-.9-2.1-2.1-2.1h-5.4c-1.2 0-2.1.9-2.1 2.1v43.4a4.9 4.9 0 009.8 0z" fill="url(#b)"/><linearGradient id="c" gradientUnits="userSpaceOnUse" x1="535.49" y1="-696.18" x2="-142.62" y2="478.34" gradientTransform="matrix(1 0 0 -1 0 -12.11)"><stop offset="0" stop-color="#2427ca"/><stop offset=".24" stop-color="#242bcc"/><stop offset=".45" stop-color="#2435d2"/><stop offset=".65" stop-color="#2447dc"/><stop offset=".84" stop-color="#2561ea"/><stop offset="1" stop-color="#257bf9"/></linearGradient><path d="M182.1 45.1c-15.2 0-25.9 11.5-25.9 26.8 0 15.5 10.7 26.9 25.9 26.9S208 87.3 208 71.9c0-15.3-10.8-26.8-25.9-26.8zm0 44.9c-8.4 0-15.8-6.3-15.8-18.1 0-11.6 7.4-17.9 15.8-17.9s15.8 6.3 15.8 17.9c0 11.7-7.4 18-15.8 18.1z" fill="url(#c)"/><linearGradient id="d" gradientUnits="userSpaceOnUse" x1="457.22" y1="-741.37" x2="-220.89" y2="433.15" gradientTransform="matrix(1 0 0 -1 0 -12.11)"><stop offset="0" stop-color="#2427ca"/><stop offset=".24" stop-color="#242bcc"/><stop offset=".45" stop-color="#2435d2"/><stop offset=".65" stop-color="#2447dc"/><stop offset=".84" stop-color="#2561ea"/><stop offset="1" stop-color="#257bf9"/></linearGradient><path d="M66.9 74.6h31.5c1.8 0 3.2-1.4 3.2-3.1 0-15.7-8.7-26.4-24.3-26.4-12.7 0-24.2 10.9-24.2 26.7 0 17.1 11.9 27 25.5 27 9.5 0 16.6-4.6 20.5-11 1.5-2.5.3-5.7-2.4-6.6-2.1-.7-4.3.2-5.5 1.9-2.3 4-6.2 6.8-12.7 6.8-7.2 0-13-4.5-14.7-11.4-.5-2 1-3.9 3.1-3.9zm-2.3-12.3c1.9-4.7 6.4-8.5 12.8-8.5 7.2 0 11.7 3.7 13.3 8.9.6 2-1 4-3.1 4h-20c-2.3 0-3.8-2.3-3-4.4z" fill="url(#d)"/><linearGradient id="e" gradientUnits="userSpaceOnUse" x1="414.06" y1="-766.29" x2="-264.05" y2="408.23" gradientTransform="matrix(1 0 0 -1 0 -12.11)"><stop offset="0" stop-color="#2427ca"/><stop offset=".24" stop-color="#242bcc"/><stop offset=".45" stop-color="#2435d2"/><stop offset=".65" stop-color="#2447dc"/><stop offset=".84" stop-color="#2561ea"/><stop offset="1" stop-color="#257bf9"/></linearGradient><path d="M1.1 87.3c-.7.8-1.1 1.8-1.1 2.9v2.5c0 2.5 2 4.5 4.6 4.5h31.7c2.5 0 4.5-2 4.5-4.5s-2-4.5-4.5-4.5H22c-3.8 0-5.8-4.4-3.4-7.3l20.6-24.4c.7-.8 1.1-1.8 1.1-2.9v-2.5c0-2.5-2-4.5-4.5-4.5H5c-2.5 0-4.5 2-4.5 4.5s2 4.5 4.5 4.5h13.3c3.8 0 5.8 4.4 3.4 7.3L1.1 87.3z" fill="url(#e)"/></svg>