<svg xmlns="http://www.w3.org/2000/svg" viewBox="0 0 1500 700"><path fill="#4654F2" d="M0 0h1500v700H0z"/><path fill="#FFF" d="M728 286h274.02v129.01H728z"/><path fill="#FFF" stroke="#FFF" stroke-miterlimit="10" d="M498 388.46v-8.6l27.79-32.96h-27.37v-8.92h39.68v8.6l-27.79 32.96h28.32v8.92H498zM599.57 374.08c-2.84 8.92-10.95 15.95-22.74 15.95-13.57 0-25.47-9.86-25.47-26.97 0-15.85 11.47-26.66 24.21-26.66 15.58 0 24.31 10.7 24.31 26.45 0 1.26-.1 2.52-.2 3.15h-38.1c.2 9.02 6.73 15.32 15.25 15.32 8.21 0 12.32-4.51 14.21-10.18l8.53 2.94zm-10-16.06c-.21-7.24-4.95-12.9-13.9-12.9-8.3 0-13.36 6.4-13.78 12.9h27.68zM644.83 347.95a30.95 30.95 0 00-4.32-.32c-8.31 0-13.9 4.4-13.9 15.53v25.3h-9.89v-50.48h9.69v8.81c3.68-7.76 10-9.65 15.15-9.65 1.37 0 2.74.2 3.27.31v10.5zM706.61 363.16c0 15.43-10.74 26.87-25.9 26.87s-25.89-11.44-25.89-26.87c0-15.32 10.74-26.76 25.9-26.76s25.9 11.44 25.9 26.76zm-10.1 0c0-11.65-7.37-17.94-15.8-17.94s-15.78 6.3-15.78 17.94c0 11.76 7.37 18.06 15.79 18.06s15.79-6.3 15.79-18.06z"/><path fill="#4654F2" d="M759.87 363.16c0 11.55 7.26 17.74 15.47 17.74 9.47 0 12.94-6.4 14.1-10.39l8.74 3.78c-2.42 7.24-9.68 15.74-22.84 15.74-14.74 0-25.58-11.54-25.58-26.87 0-15.74 11.05-26.76 25.47-26.76 13.48 0 20.42 8.4 22.53 16.06l-8.95 3.78c-1.26-4.94-4.95-10.7-13.58-10.7-8 0-15.36 5.87-15.36 17.62zM813.97 388.46v-75.99h9.9v75.99h-9.9zM849.75 311.74a7.09 7.09 0 110 14.17 7.04 7.04 0 01-7.05-7.04 7.06 7.06 0 017.05-7.13zm-4.84 76.72v-50.48h9.79v50.48h-9.79zM881.64 363.16c0 11.55 7.27 17.74 15.48 17.74 9.47 0 12.94-6.4 14.1-10.39l8.74 3.78c-2.43 7.24-9.69 15.74-22.85 15.74-14.73 0-25.57-11.54-25.57-26.87 0-15.74 11.05-26.76 25.47-26.76 13.47 0 20.42 8.4 22.52 16.06l-8.94 3.78c-1.26-4.94-4.95-10.7-13.58-10.7-8 0-15.37 5.87-15.37 17.62zM959.53 359.28l22 29.18H969.1l-16.53-22.25-7.05 7.03v15.22h-9.79v-75.99h9.8v47.86l21.89-22.35h13.68l-21.58 21.3z"/></svg>