<svg xmlns="http://www.w3.org/2000/svg" viewBox="0 0 1500 700"><linearGradient id="a" gradientUnits="userSpaceOnUse" x1="1089.054" y1="-237.369" x2="410.946" y2="937.149" gradientTransform="matrix(1 0 0 -1 0 699.89)"><stop offset="0" stop-color="#2427ca"/><stop offset=".239" stop-color="#242bcc"/><stop offset=".45" stop-color="#2435d2"/><stop offset=".651" stop-color="#2447dc"/><stop offset=".844" stop-color="#2561ea"/><stop offset="1" stop-color="#257bf9"/></linearGradient><path fill="url(#a)" d="M0 0h1500v700H0V0z"/><path fill="#FFF" d="M1000.7 285.5H737.1c-3.2 0-5.7 2.6-5.7 5.7v117.5c0 3.2 2.6 5.7 5.7 5.7h263.5c3.2 0 5.7-2.6 5.7-5.7V291.2c.1-3.1-2.5-5.7-5.6-5.7zM796 373.4c-3.6 5.7-10.3 10.8-20.5 10.8-14.7 0-25.6-11.5-25.6-26.9 0-15.7 11.1-26.8 25.5-26.8 10.7 0 17.3 5.3 20.6 11.3 1.3 2.4.2 5.4-2.3 6.5l-.2.1c-2.2.9-4.9.1-6-2-2-3.6-5.7-6.8-12-6.8-8 0-15.4 5.9-15.4 17.6 0 11.5 7.3 17.7 15.5 17.7 6.8 0 10.5-3.3 12.5-6.6 1.2-2 3.7-2.9 5.9-1.9 2.5 1.3 3.5 4.6 2 7zm27.8 4.6c0 2.6-2.1 4.7-4.7 4.7h-.5c-2.6 0-4.7-2.1-4.7-4.7v-66.6c0-2.6 2.1-4.7 4.7-4.7h.5c2.6 0 4.7 2.1 4.7 4.7V378zm30.6 0c0 2.6-2.1 4.7-4.7 4.7h-.4c-2.6 0-4.7-2.1-4.7-4.7v-41.1c0-2.6 2.1-4.7 4.7-4.7h.4c2.6 0 4.7 2.1 4.7 4.7V378zm-4.9-57.9c-3.9 0-7.1-3.1-7.1-7 0-4 3.2-7.1 7.1-7.1 4 0 7.2 3.1 7.2 7.1 0 3.9-3.2 7-7.2 7zm67.6 53.3c-3.6 5.7-10.3 10.8-20.5 10.8-14.7 0-25.6-11.5-25.6-26.9 0-15.7 11.1-26.8 25.5-26.8 10.7 0 17.3 5.3 20.6 11.3 1.3 2.4.2 5.4-2.3 6.5l-.2.1c-2.2.9-4.9.1-6-2-2-3.6-5.7-6.8-12-6.8-8 0-15.4 5.9-15.4 17.6 0 11.5 7.3 17.7 15.5 17.7 6.8 0 10.5-3.3 12.5-6.6 1.2-2 3.7-2.9 5.9-1.9 2.6 1.3 3.6 4.6 2 7zm54.3 9.3h-.6c-1.5 0-2.9-.7-3.8-1.9l-11.9-16c-1.7-2.3-5.1-2.6-7.1-.5l-1.8 1.8c-.9.9-1.4 2.1-1.4 3.3v8.6c0 2.6-2.1 4.7-4.7 4.7h-.4c-2.6 0-4.7-2.1-4.7-4.7v-66.6c0-2.6 2.1-4.7 4.7-4.7h.4c2.6 0 4.7 2.1 4.7 4.7V343c0 4.2 5.1 6.3 8.1 3.3l12.5-12.7c.9-.9 2.1-1.4 3.4-1.4h.3c4.2 0 6.3 5.1 3.3 8l-10.5 10.4c-1.7 1.7-1.9 4.3-.5 6.2l13.8 18.4c2.3 3 .1 7.5-3.8 7.5zM497.6 378.2v-2.5c0-1.1.4-2.1 1.1-2.9l20.6-24.4c2.4-2.9.4-7.3-3.4-7.3h-13.3c-2.5 0-4.5-2-4.5-4.5s2-4.5 4.5-4.5h30.8c2.5 0 4.5 2 4.5 4.5v2.5c0 1.1-.4 2.1-1.1 2.9l-20.6 24.4c-2.4 2.9-.4 7.3 3.4 7.3h14.3c2.5 0 4.5 2 4.5 4.5s-2 4.5-4.5 4.5h-31.7c-2.6 0-4.6-2-4.6-4.5zM594.3 366.7c2.7.9 3.9 4.1 2.4 6.6-3.9 6.4-11 11-20.5 11-13.6 0-25.5-9.9-25.5-27 0-15.8 11.5-26.7 24.2-26.7 15.6 0 24.3 10.7 24.3 26.4 0 1.7-1.4 3.1-3.2 3.1h-31.5c-2.1 0-3.6 1.9-3.1 3.9 1.7 6.9 7.5 11.4 14.7 11.4 6.5 0 10.4-2.8 12.7-6.8 1.2-1.7 3.4-2.6 5.5-1.9zm-9.1-14.5c2.1 0 3.7-2 3.1-4-1.6-5.2-6.1-8.9-13.3-8.9-6.4 0-10.9 3.8-12.8 8.5-.8 2.1.7 4.4 3 4.4h20zM644 338.6c0 1.8-1.5 3.3-3.3 3.3h-1c-8.3 0-13.9 4.4-13.9 15.5v20.3c0 2.7-2.2 4.9-4.9 4.9s-4.9-2.2-4.9-4.9v-43.4c0-1.2.9-2.1 2.1-2.1h5.4c1.2 0 2.1.9 2.1 2.1 0 1.9 2.3 2.8 3.6 1.5 3.5-3.5 7.8-4.4 11.5-4.4 1.8 0 3.2 1.4 3.2 3.2l.1 4zM705.6 357.4c0 15.4-10.7 26.9-25.9 26.9s-25.9-11.4-25.9-26.9c0-15.3 10.7-26.8 25.9-26.8 15.1 0 25.9 11.5 25.9 26.8zm-10.1 0c0-11.6-7.4-17.9-15.8-17.9s-15.8 6.3-15.8 17.9c0 11.8 7.4 18.1 15.8 18.1 8.4-.1 15.8-6.4 15.8-18.1z"/></svg>