<svg xmlns="http://www.w3.org/2000/svg" viewBox="0 0 100 100"><linearGradient id="a" gradientUnits="userSpaceOnUse" x1="3.14" y1="10.68" x2="96.86" y2="89.32"><stop offset="0" stop-color="#243ed7"/><stop offset="1" stop-color="#2431d0"/></linearGradient><path d="M77.33 100H22.67A22.67 22.67 0 010 77.33V22.67A22.67 22.67 0 0122.67 0h54.66A22.67 22.67 0 01100 22.67v54.66A22.67 22.67 0 0177.33 100z" fill="url(#a)"/><path d="M28.77 71.78v-2.64c0-1.1.39-2.17 1.1-3l21.48-25.56a4.67 4.67 0 00-3.58-7.68H33.88a4.67 4.67 0 110-9.35h32.13c2.58 0 4.67 2.09 4.67 4.67v2.64c0 1.1-.39 2.17-1.1 3.01L48.1 59.42a4.67 4.67 0 003.58 7.68h14.88a4.67 4.67 0 010 9.35H33.45a4.67 4.67 0 01-4.68-4.67z" fill="#fff"/></svg>