<svg fill="none" xmlns="http://www.w3.org/2000/svg" viewBox="0 0 66 30"><rect x=".5" y=".5" width="65" height="29" rx="4.5" fill="url(#paint0_linear)" stroke="url(#paint1_linear)"/><path d="M19 6.7a8.03 8.03 0 00-7.38 4.87 7.9 7.9 0 00-.21 5.65 7.9 7.9 0 005.06 5.06c.2.04.34.02.42-.08.08-.1.13-.19.13-.3v-.56l-.02-.92c-1.1.24-1.83.14-2.17-.3l-.52-.65a2.19 2.19 0 00-.6-.92l-.29-.25c-.36-.25-.45-.4-.25-.43l.31-.06c.4.03.7.18.91.44l.31.4c.36.6.77.9 1.25.87a3.5 3.5 0 001.08-.22c.04-.25.11-.47.2-.64.1-.18.2-.32.32-.43-.45-.05-.9-.14-1.33-.26a3.09 3.09 0 01-2-1.81 4.62 4.62 0 01-.11-3.07c.15-.36.35-.68.6-.96a2.72 2.72 0 01.08-2.1l.52.02c.36 0 .92.27 1.69.78a7.25 7.25 0 012-.27c.34 0 .68.03 1.02.08.34.04.67.1.98.19.77-.51 1.33-.77 1.67-.78l.53-.03a2.72 2.72 0 01.08 2.1 3.11 3.11 0 01.83 2.16c0 .77-.11 1.4-.33 1.9a3.03 3.03 0 01-2.01 1.77c-.43.14-.87.23-1.32.28.15.12.27.3.38.55.11.25.17.56.17.92 0 .54 0 1.01-.02 1.4v.8c0 .11.05.2.13.3.08.1.22.12.42.08a8 8 0 003.92-2.86 8.05 8.05 0 00.93-7.84 7.9 7.9 0 00-1.72-2.53A7.85 7.85 0 0019 6.7zM33.7 19.64v-1.56c.14.13.3.24.5.35a4.2 4.2 0 001.86.47c.63 0 1.1-.1 1.42-.32.3-.2.46-.51.46-.92 0-.21-.05-.4-.15-.55-.1-.17-.25-.31-.44-.44-.18-.13-.4-.26-.66-.38l-.8-.38c-.31-.16-.6-.33-.87-.5-.26-.17-.5-.35-.7-.56-.19-.2-.34-.44-.46-.7a2.3 2.3 0 01-.16-.9c0-.43.1-.8.28-1.11.2-.32.45-.58.77-.79.31-.2.67-.36 1.07-.45a5 5 0 011.24-.15c.95 0 1.64.1 2.08.32v1.49a3.33 3.33 0 00-2-.56c-.22 0-.44.02-.67.07-.22.04-.42.1-.6.2-.17.1-.31.23-.42.38a.92.92 0 00-.16.55c0 .2.04.38.12.53.09.15.21.28.37.4.17.13.36.25.6.37.23.11.5.24.82.37.31.17.61.34.9.52.27.18.52.38.73.6.22.22.39.47.51.74.13.27.2.57.2.91 0 .47-.1.86-.29 1.17-.18.32-.44.58-.75.78-.32.2-.68.34-1.09.43a6.14 6.14 0 01-3.7-.38zm10.77.29c-.29.14-.67.22-1.14.22-1.26 0-1.89-.6-1.89-1.82v-3.67h-1.08V13.5h1.08V12l1.48-.42v1.92h1.55v1.16h-1.55v3.25c0 .38.06.66.2.82.14.17.38.25.7.25.25 0 .47-.07.65-.22v1.17zm6.26.07H49.3v-1.02h-.02a2.15 2.15 0 01-1.98 1.17 2.1 2.1 0 01-1.5-.52c-.36-.35-.54-.8-.54-1.38 0-1.22.7-1.94 2.12-2.14l1.93-.27c0-.93-.44-1.4-1.32-1.4-.78 0-1.48.27-2.1.8v-1.28c.69-.4 1.48-.61 2.38-.61 1.64 0 2.46.8 2.46 2.42V20zm-1.42-3.2l-1.37.2c-.42.05-.74.16-.96.3-.2.16-.31.42-.31.8 0 .27.1.5.29.67.2.18.46.27.8.27.44 0 .81-.16 1.1-.47.3-.32.45-.72.45-1.2v-.56zm7-1.9c-.19-.14-.44-.2-.78-.2-.43 0-.8.19-1.09.58-.29.4-.44.93-.44 1.61V20h-1.47v-6.5H54v1.34h.03c.14-.46.36-.81.66-1.07.3-.26.63-.38 1-.38.27 0 .47.04.61.12v1.4z" fill="#fff"/><defs><linearGradient id="paint0_linear" x1="33" y1="1" x2="33" y2="29" gradientUnits="userSpaceOnUse"><stop stop-color="#30373E"/><stop offset="1" stop-color="#212529"/></linearGradient><linearGradient id="paint1_linear" x1="33" y1="1" x2="33" y2="29" gradientUnits="userSpaceOnUse"><stop stop-color="#2C3239" stop-opacity=".99"/><stop offset="1" stop-color="#202428"/></linearGradient></defs></svg>