<svg xmlns="http://www.w3.org/2000/svg" viewBox="0 0 331.82 119.34"><linearGradient id="a" gradientUnits="userSpaceOnUse" x1="602.22" y1="591.84" x2="-75.89" y2="-582.68"><stop offset="0" stop-color="#2427ca"/><stop offset=".24" stop-color="#242bcc"/><stop offset=".45" stop-color="#2435d2"/><stop offset=".65" stop-color="#2447dc"/><stop offset=".84" stop-color="#2561ea"/><stop offset="1" stop-color="#257bf9"/></linearGradient><path d="M326.1 0h-62.26a5.71 5.71 0 00-5.71 5.71v107.92a5.71 5.71 0 005.7 5.71h62.28a5.71 5.71 0 005.7-5.71V5.71a5.71 5.71 0 00-5.7-5.71zm-31.28 22.7a5.9 5.9 0 015.9 6.2l-2.15 43.39a3.7 3.7 0 01-7.4 0l-2.24-43.38a5.9 5.9 0 015.9-6.2zm0 74.94c-3.8 0-6.85-3.04-6.85-6.82s3.06-6.93 6.85-6.93 6.94 3.15 6.94 6.93-3.15 6.82-6.94 6.82z" fill="url(#a)"/><path d="M129.07 60.68c0-11.65-7.37-17.95-15.79-17.95s-15.79 6.3-15.79 17.95c0 11.76 7.37 18.05 15.79 18.05s15.79-6.3 15.79-18.05z" fill="none"/><linearGradient id="b" gradientUnits="userSpaceOnUse" x1="526.89" y1="775.35" x2="-151.22" y2="-399.17" gradientTransform="translate(0 -140.02)"><stop offset="0" stop-color="#2427ca"/><stop offset=".24" stop-color="#242bcc"/><stop offset=".45" stop-color="#2435d2"/><stop offset=".65" stop-color="#2447dc"/><stop offset=".84" stop-color="#2561ea"/><stop offset="1" stop-color="#257bf9"/></linearGradient><path d="M221.78 35.5c-2.09-.05-4.28 1.72-4.87 3.72l-7.87 26.8a2.49 2.49 0 01-4.74.1l-8.85-25.55a7.41 7.41 0 00-5.85-5 7.17 7.17 0 00-7.79 4.74l-8.96 25.88a2.49 2.49 0 01-4.74-.1l-8.1-27.1a4.9 4.9 0 00-4.7-3.5h-.42a4.9 4.9 0 00-4.66 6.44l12.9 39.15a7.11 7.11 0 006.76 4.9h.2a7.11 7.11 0 006.72-4.82l9.18-26.8a2.49 2.49 0 014.7-.02l9.34 26.61a7.36 7.36 0 005.88 4.96 7.12 7.12 0 007.7-4.85l12.73-39.15a4.9 4.9 0 00-4.56-6.42z" fill="url(#b)"/><linearGradient id="c" gradientUnits="userSpaceOnUse" x1="414.41" y1="840.29" x2="-263.7" y2="-334.22" gradientTransform="translate(0 -140.02)"><stop offset="0" stop-color="#2427ca"/><stop offset=".24" stop-color="#242bcc"/><stop offset=".45" stop-color="#2435d2"/><stop offset=".65" stop-color="#2447dc"/><stop offset=".84" stop-color="#2561ea"/><stop offset="1" stop-color="#257bf9"/></linearGradient><path d="M20.98 85.9a7.5 7.5 0 005.97-5.09L36 54.36a2.49 2.49 0 014.7-.02l9.34 26.61a7.36 7.36 0 005.88 4.96 7.12 7.12 0 007.69-4.85L76.35 41.9a4.9 4.9 0 00-4.55-6.42c-2.1-.04-4.29 1.73-4.87 3.73l-7.87 26.8a2.49 2.49 0 01-4.74.1l-8.85-25.55a7.42 7.42 0 00-5.86-5 7.17 7.17 0 00-7.78 4.74L22.86 66.2a2.49 2.49 0 01-4.73-.1l-8.11-27.1a4.9 4.9 0 00-4.7-3.5h-.41a4.9 4.9 0 00-4.66 6.44l12.87 39.06a7.25 7.25 0 007.86 4.92z" fill="url(#c)"/><linearGradient id="d" gradientUnits="userSpaceOnUse" x1="465.5" y1="810.8" x2="-212.61" y2="-363.72" gradientTransform="translate(0 -140.02)"><stop offset="0" stop-color="#2427ca"/><stop offset=".24" stop-color="#242bcc"/><stop offset=".45" stop-color="#2435d2"/><stop offset=".65" stop-color="#2447dc"/><stop offset=".84" stop-color="#2561ea"/><stop offset="1" stop-color="#257bf9"/></linearGradient><path d="M139.17 60.68c0-15.32-10.73-26.76-25.89-26.76s-25.9 11.44-25.9 26.76c0 15.43 10.74 26.87 25.9 26.87s25.9-11.44 25.9-26.87zm-41.68 0c0-11.65 7.37-17.95 15.79-17.95s15.79 6.3 15.79 17.95c0 11.75-7.37 18.05-15.79 18.05s-15.79-6.3-15.79-18.05z" fill="url(#d)"/></svg>